<svg width="100" height="100" viewBox="0 0 100 100" fill="none" xmlns="http://www.w3.org/2000/svg">
<g clip-path="url(#clip0_179_1367)">
<path d="M13.5225 38.4229C13.7999 38.4221 14.0773 38.4211 14.3547 38.4199C15.1037 38.4173 15.8527 38.4172 16.6017 38.4177C17.2292 38.4179 17.8567 38.4169 18.4842 38.416C19.966 38.4138 21.4478 38.4137 22.9296 38.4149C24.4529 38.4161 25.9763 38.4137 27.4997 38.4095C28.8123 38.4061 30.1249 38.4049 31.4375 38.4055C32.2193 38.4059 33.0012 38.4054 33.7831 38.4027C34.5191 38.4002 35.2551 38.4006 35.9911 38.4031C36.3862 38.4038 36.7813 38.4016 37.1764 38.3993C40.5926 38.4188 43.3434 39.4551 45.7759 41.8495C48.801 44.9915 49.1161 48.452 49.1084 52.6253C49.1093 53.0503 49.1104 53.4753 49.1115 53.9003C49.1133 54.7876 49.1128 55.6749 49.1109 56.5622C49.1086 57.6948 49.1126 58.8272 49.1183 59.9598C49.1219 60.8363 49.1218 61.7128 49.1207 62.5894C49.1207 63.0068 49.1218 63.4242 49.1243 63.8417C49.1399 66.9618 48.9515 69.3109 46.7166 71.6614C44.892 73.3977 42.7738 73.6705 40.3446 73.645C40.183 73.6441 40.0215 73.6433 39.8551 73.6423C39.4608 73.6401 39.0665 73.6366 38.6722 73.6328C38.6741 73.9817 38.6741 73.9817 38.6761 74.3376C38.688 76.5357 38.6968 78.7338 38.7026 80.932C38.7056 82.0619 38.7097 83.1918 38.7164 84.3217C38.7228 85.4134 38.7263 86.505 38.7278 87.5966C38.7289 88.0119 38.731 88.4271 38.7341 88.8424C38.7563 91.8618 38.7553 94.4789 36.6214 96.8262C36.4603 96.9712 36.2991 97.1162 36.1331 97.2656C35.9881 97.3986 35.8431 97.5315 35.6937 97.6685C34.2765 98.6669 32.8777 99.0514 31.1644 99.058C31.0192 99.0593 30.8739 99.0606 30.7243 99.0619C30.2443 99.0657 29.7643 99.068 29.2842 99.07C29.0372 99.0712 29.0372 99.0712 28.7852 99.0724C27.9127 99.0765 27.0402 99.0793 26.1678 99.0811C25.2711 99.0832 24.3746 99.09 23.4781 99.0977C22.7848 99.1029 22.0916 99.1045 21.3984 99.1052C21.0682 99.1061 20.7379 99.1084 20.4077 99.112C17.7621 99.1394 15.5699 98.8603 13.5501 96.9849C13.397 96.8197 13.244 96.6545 13.0863 96.4844C12.8869 96.2729 12.8869 96.2729 12.6834 96.0571C11.545 94.4046 11.2984 92.6823 11.3063 90.7281C11.3062 90.5432 11.3062 90.3583 11.3062 90.1678C11.3063 89.558 11.3078 88.9482 11.3094 88.3385C11.3097 87.9151 11.31 87.4917 11.3102 87.0684C11.311 85.9552 11.3129 84.842 11.315 83.7287C11.317 82.5924 11.3179 81.456 11.3189 80.3196C11.321 78.0907 11.3243 75.8617 11.3284 73.6328C11.0871 73.6344 10.8458 73.6359 10.5972 73.6375C10.2774 73.6388 9.95757 73.64 9.63777 73.6412C9.47909 73.6423 9.32041 73.6435 9.15693 73.6446C6.75179 73.6513 4.77161 73.1305 2.96663 71.46C1.76989 70.1954 0.956822 68.5271 0.949451 66.7659C0.948336 66.6055 0.947221 66.4451 0.946072 66.2799C0.945853 66.1056 0.945635 65.9312 0.94541 65.7516C0.94444 65.5667 0.943471 65.3818 0.942472 65.1912C0.939618 64.579 0.938287 63.9667 0.937208 63.3545C0.936084 62.9277 0.93496 62.5009 0.933835 62.0741C0.931782 61.1783 0.930641 60.2825 0.929961 59.3867C0.928893 58.2436 0.924206 57.1006 0.918637 55.9575C0.914983 55.0751 0.913982 54.1927 0.913684 53.3103C0.913096 52.8892 0.911538 52.4681 0.90896 52.0471C0.885827 47.9758 1.37857 44.7373 4.35213 41.7236C6.97952 39.1868 9.94929 38.4162 13.5225 38.4229ZM8.29576 47.02C7.51237 48.221 7.33557 49.2006 7.34328 50.6056C7.34194 50.7782 7.3406 50.9508 7.33921 51.1287C7.33566 51.6955 7.33639 52.2622 7.33751 52.829C7.33662 53.2241 7.33558 53.6192 7.3344 54.0144C7.33266 54.8405 7.33313 55.6666 7.33507 56.4927C7.33733 57.5526 7.33336 58.6123 7.32767 59.6722C7.32409 60.4871 7.32414 61.3021 7.32526 62.1171C7.32529 62.508 7.3241 62.8989 7.32168 63.2898C7.31879 63.835 7.32084 64.38 7.3242 64.9252C7.32231 65.0871 7.32043 65.2491 7.31848 65.4159C7.32388 66.283 7.32388 66.283 7.77179 66.9946C8.45222 67.2987 9.13739 67.2696 9.86894 67.2668C10.0303 67.269 10.1916 67.2711 10.3578 67.2733C10.8726 67.2799 11.3873 67.283 11.9022 67.2852C12.5795 67.288 13.2566 67.2946 13.9339 67.3035C14.0887 67.3029 14.2436 67.3023 14.4031 67.3017C15.3123 67.314 15.8386 67.4286 16.6019 67.9687C16.7308 67.9687 16.8597 67.9687 16.9925 67.9687C17.0529 68.1218 17.1134 68.2749 17.1756 68.4326C17.3692 68.9303 17.3692 68.9303 17.5784 69.3359C17.5976 69.6365 17.6045 69.9379 17.6054 70.2391C17.6065 70.4294 17.6075 70.6197 17.6086 70.8158C17.6088 71.0254 17.609 71.2349 17.6092 71.4508C17.6102 71.6709 17.6112 71.8909 17.6123 72.1177C17.6143 72.5969 17.616 73.076 17.6174 73.5552C17.6197 74.3126 17.6234 75.0701 17.6277 75.8275C17.6398 77.9816 17.6504 80.1356 17.6568 82.2896C17.6608 83.6059 17.6678 84.9221 17.6765 86.2383C17.6793 86.741 17.681 87.2437 17.6816 87.7463C17.6826 88.4483 17.6871 89.1501 17.6924 89.8521C17.6918 90.0612 17.6912 90.2704 17.6906 90.4858C17.6928 90.6767 17.695 90.8676 17.6972 91.0642C17.6978 91.2303 17.6985 91.3963 17.6992 91.5673C17.7911 92.0909 17.936 92.2647 18.3597 92.5781C18.9511 92.6675 18.9511 92.6675 19.6361 92.6539C19.7648 92.655 19.8935 92.656 20.026 92.6571C20.4513 92.6596 20.8764 92.6579 21.3016 92.6559C21.5971 92.6563 21.8926 92.6569 22.1882 92.6576C22.8075 92.6585 23.4268 92.6572 24.0461 92.6545C24.8402 92.6512 25.6341 92.6531 26.4282 92.6566C27.0384 92.6587 27.6486 92.6581 28.2589 92.6565C28.5517 92.6561 28.8445 92.6566 29.1373 92.658C29.5464 92.6595 29.9554 92.6572 30.3645 92.6539C30.5974 92.6535 30.8303 92.653 31.0702 92.6525C31.6305 92.6265 31.6305 92.6265 31.965 92.3381C32.3048 91.8893 32.2999 91.6307 32.2995 91.0708C32.3008 90.8813 32.3021 90.6919 32.3035 90.4967C32.302 90.2891 32.3005 90.0815 32.2989 89.8676C32.2997 89.6487 32.3004 89.4299 32.3012 89.2044C32.3024 88.7283 32.3023 88.2522 32.3011 87.7762C32.2993 87.0226 32.3013 86.269 32.3044 85.5154C32.3112 83.643 32.3127 81.7706 32.3122 79.8982C32.3118 78.3176 32.3145 76.737 32.3216 75.1563C32.3237 74.4142 32.3214 73.6722 32.3189 72.9301C32.3207 72.4739 32.3226 72.0178 32.3249 71.5616C32.322 71.2526 32.322 71.2526 32.3191 70.9373C32.3311 69.7118 32.4712 68.9645 33.2034 67.9687C34.1334 67.3108 34.9888 67.2993 36.0858 67.3035C36.3277 67.3003 36.3277 67.3003 36.5744 67.2971C37.2601 67.2881 37.9459 67.2858 38.6317 67.283C39.134 67.2799 39.6362 67.2735 40.1386 67.2668C40.2932 67.2674 40.4478 67.268 40.6072 67.2686C41.193 67.2606 41.6902 67.2358 42.2285 66.9929C42.7717 66.3855 42.6872 65.7276 42.6795 64.9524C42.6809 64.784 42.6823 64.6156 42.6837 64.4421C42.6871 63.884 42.6848 63.326 42.6822 62.7678C42.6827 62.3792 42.6835 61.9906 42.6845 61.602C42.6856 60.7861 42.6839 59.9703 42.6803 59.1545C42.6759 58.1127 42.6784 57.071 42.6831 56.0292C42.6859 55.2257 42.685 54.4223 42.683 53.6188C42.6825 53.235 42.6831 52.8512 42.6849 52.4674C42.7096 48.9311 42.7096 48.9311 40.8733 46.0098C39.4308 45.0117 38.1356 44.8108 36.407 44.8456C36.1971 44.8467 35.9872 44.8478 35.7709 44.8489C35.1062 44.8533 34.4418 44.8631 33.7772 44.873C33.3241 44.877 32.8711 44.8805 32.418 44.8837C31.3126 44.8923 30.2072 44.9053 29.1019 44.9219C29.141 45.0779 29.1802 45.2339 29.2205 45.3946C29.59 46.8683 29.958 48.3423 30.3242 49.8168C30.5126 50.5748 30.7015 51.3326 30.8917 52.09C31.0755 52.8217 31.2577 53.5537 31.4388 54.2859C31.508 54.5646 31.5778 54.8431 31.6481 55.1215C31.7469 55.5129 31.8437 55.9046 31.94 56.2966C31.9955 56.5191 32.051 56.7416 32.1082 56.9708C32.319 58.1193 32.3324 59.0569 31.76 60.1015C31.1158 61.0143 30.3074 61.7845 29.5103 62.5626C29.1982 62.8675 28.8893 63.1756 28.5808 63.4842C26.5621 65.4834 26.5621 65.4834 25.0247 65.5029C24.8278 65.5085 24.631 65.514 24.4281 65.5197C22.9038 65.2909 21.8105 63.8751 20.7645 62.8288C20.4722 62.5373 20.1769 62.2491 19.8814 61.961C19.6926 61.7734 19.504 61.5856 19.3157 61.3976C19.1462 61.2297 18.9767 61.0618 18.8021 60.8888C17.9396 59.8413 17.7137 58.9516 17.7738 57.6172C17.8551 57.1741 17.9516 56.7337 18.0606 56.2966C18.0911 56.1726 18.1216 56.0485 18.153 55.9208C18.2529 55.5156 18.3551 55.1111 18.4573 54.7066C18.5276 54.4239 18.5976 54.1413 18.6675 53.8585C18.8511 53.1181 19.0365 52.3781 19.2224 51.6382C19.4121 50.8818 19.5999 50.1248 19.7879 49.3679C20.1564 47.8855 20.5269 46.4035 20.8988 44.9219C19.5716 44.897 18.2445 44.88 16.9172 44.8682C16.4663 44.8633 16.0155 44.8567 15.5647 44.8482C14.914 44.8363 14.2635 44.8308 13.6127 44.8265C13.4134 44.8215 13.2142 44.8164 13.0089 44.8112C11.014 44.8105 9.58687 45.5036 8.29576 47.02Z" fill="url(#paint0_linear_179_1367)"/>
<path d="M90.2833 7.40966C95.1956 11.6681 98.4505 17.9173 99.0236 24.4141C99.4278 31.7935 97.5991 38.7707 92.6393 44.3886C92.3604 44.6982 92.079 45.0056 91.797 45.3125C91.6696 45.456 91.5422 45.5995 91.411 45.7474C88.6948 48.655 85.0431 50.6718 81.3112 51.9409C81.1561 51.9937 81.0011 52.0466 80.8414 52.101C78.2557 52.9243 75.6985 53.2347 72.9982 53.2104C72.8587 53.2099 72.7192 53.2094 72.5755 53.2088C70.2537 53.1955 68.0583 52.9858 65.8204 52.3437C65.6905 52.3082 65.5605 52.2727 65.4266 52.2361C61.2306 51.0663 57.584 48.7233 54.4923 45.7031C54.3382 45.5611 54.1841 45.4191 54.0254 45.2728C49.8825 41.3617 47.1274 35.2715 46.8406 29.5885C46.7214 22.4099 47.9837 15.9832 52.7345 10.3516C52.8793 10.1793 53.024 10.0071 53.1732 9.8297C62.7281 -1.13886 79.3483 -1.83517 90.2833 7.40966ZM58.0568 14.0259C54.13 18.5867 53.0166 23.9969 53.3204 29.8828C53.7624 34.0978 56.0866 38.0258 58.9845 41.0156C59.0872 41.1327 59.1899 41.2498 59.2958 41.3704C62.4586 44.8479 67.6191 46.6273 72.1956 46.8605C77.792 47.0301 82.7686 44.8302 86.8454 41.0841C87.8534 40.1219 88.6728 39.0434 89.4532 37.8906C89.5613 37.7325 89.6693 37.5744 89.7806 37.4115C92.381 33.353 93.2778 28.0795 92.3482 23.3632C91.5485 19.8408 90.0344 16.8093 87.6954 14.0625C87.566 13.8971 87.4366 13.7317 87.3033 13.5612C84.4188 10.0377 79.6098 8.02403 75.1954 7.42187C74.4619 7.36799 73.7335 7.35645 72.9982 7.36083C72.7039 7.36248 72.7039 7.36248 72.4037 7.36417C66.7679 7.45552 61.885 9.98569 58.0568 14.0259Z" fill="url(#paint1_linear_179_1367)"/>
<path d="M34.595 6.18895C34.8496 6.40184 35.1018 6.61772 35.3519 6.83592C35.5409 6.98673 35.73 7.13754 35.9248 7.29292C37.7999 8.85815 38.9805 11.0371 39.8441 13.2812C39.9289 13.4985 40.0137 13.7158 40.1012 13.9397C41.3742 17.8476 40.8684 22.2123 39.0994 25.8545C38.4923 27.0435 37.7898 28.0907 36.9144 29.1015C36.7978 29.2564 36.6812 29.4112 36.5611 29.5708C34.9596 31.4692 32.762 32.7237 30.4691 33.5937C30.252 33.6783 30.035 33.7629 29.8114 33.8501C25.9049 35.1257 21.5369 34.6178 17.8958 32.8491C16.7073 32.2417 15.6563 31.5432 14.6487 30.664C14.4597 30.5132 14.2706 30.3624 14.0758 30.207C12.2007 28.6418 11.0201 26.4629 10.1566 24.2187C10.0293 23.8928 10.0293 23.8928 9.89944 23.5603C8.62642 19.6525 9.13203 15.2875 10.9012 11.6455C11.5086 10.457 12.2071 9.40599 13.0862 8.39842C13.3125 8.1148 13.3125 8.1148 13.5432 7.82545C15.1085 5.95035 17.2874 4.76982 19.5316 3.90623C19.7488 3.82139 19.9661 3.73654 20.19 3.64912C25.0111 2.07855 30.598 3.11738 34.595 6.18895ZM18.5786 12.0705C17.081 13.5465 17.081 13.5465 16.4066 15.4297C20.6831 15.3341 25.6321 13.7981 28.7357 10.7544C28.8565 10.6214 28.9774 10.4885 29.1019 10.3515C25.298 8.96774 21.6382 9.10879 18.5786 12.0705ZM32.5985 15.899C27.9899 19.7147 22.2393 21.1797 16.4066 21.875C16.6894 23.7133 18.128 25.2289 19.5316 26.3672C22.014 27.8799 24.5901 28.3351 27.4394 27.8023C29.9818 27.0339 32.0556 25.2653 33.3423 22.9637C34.3496 20.9522 34.5204 18.575 34.0472 16.375C33.8834 15.8567 33.8834 15.8567 33.5941 15.2344C33.1833 15.2344 32.8999 15.6458 32.5985 15.899Z" fill="url(#paint2_linear_179_1367)"/>
<path d="M73.8277 13.4766C74.7542 13.8026 75.2383 14.2253 75.7808 15.0391C76.1104 15.7404 76.2195 16.2861 76.2158 17.0588C76.2158 17.2621 76.2157 17.4653 76.2157 17.6747C76.2137 17.8919 76.2117 18.109 76.2096 18.3327C76.209 18.5567 76.2085 18.7808 76.2079 19.0116C76.2057 19.726 76.2008 20.4404 76.1958 21.1548C76.1939 21.6396 76.1921 22.1245 76.1905 22.6093C76.1862 23.7969 76.1797 24.9844 76.1714 26.1719C76.3191 26.228 76.4668 26.2842 76.619 26.342C77.3134 26.6314 77.913 27.0373 78.5335 27.4567C78.6642 27.5444 78.7949 27.6321 78.9295 27.7224C79.205 27.9078 79.4801 28.0936 79.7549 28.28C80.1727 28.5627 80.5924 28.8425 81.0123 29.1222C81.2807 29.3033 81.549 29.4846 81.8172 29.6661C82.0037 29.7898 82.0037 29.7898 82.194 29.916C83.1033 30.5384 83.8725 31.2225 84.3746 32.2266C84.4908 33.321 84.5936 34.4167 83.9595 35.3638C83.2187 36.2098 82.4359 36.5511 81.3228 36.6455C79.0036 36.5279 76.5819 34.2867 74.7078 33.0206C74.2149 32.6881 73.7204 32.3581 73.2257 32.0282C72.9095 31.8152 72.5934 31.6021 72.2774 31.3888C72.0574 31.2426 72.0574 31.2426 71.8329 31.0935C70.8759 30.4422 70.105 29.8475 69.7261 28.7109C69.7047 28.2949 69.6951 27.8783 69.6916 27.4618C69.6903 27.3359 69.689 27.2101 69.6877 27.0804C69.6838 26.6644 69.6815 26.2484 69.6796 25.8324C69.6788 25.69 69.678 25.5476 69.6772 25.4009C69.6731 24.6473 69.6703 23.8938 69.6685 23.1402C69.6663 22.3632 69.6596 21.5864 69.6518 20.8095C69.6467 20.2108 69.6451 19.6121 69.6444 19.0134C69.6434 18.7271 69.6412 18.4408 69.6376 18.1544C69.6328 17.7529 69.633 17.3516 69.6343 16.95C69.6332 16.7219 69.632 16.4938 69.6309 16.2588C69.7811 15.2592 70.2748 14.658 71.0201 14.0015C71.935 13.3514 72.7285 13.3836 73.8277 13.4766Z" fill="url(#paint3_linear_179_1367)"/>
</g>
<defs>
<linearGradient id="paint0_linear_179_1367" x1="0.908203" y1="68.7565" x2="54.8582" y2="68.7565" gradientUnits="userSpaceOnUse">
<stop stop-color="#4FACFE"/>
<stop offset="1" stop-color="#3A4DCC"/>
</linearGradient>
<linearGradient id="paint1_linear_179_1367" x1="46.833" y1="27.1032" x2="105.29" y2="27.1032" gradientUnits="userSpaceOnUse">
<stop stop-color="#4FACFE"/>
<stop offset="1" stop-color="#3A4DCC"/>
</linearGradient>
<linearGradient id="paint2_linear_179_1367" x1="9.19043" y1="18.742" x2="44.5698" y2="18.742" gradientUnits="userSpaceOnUse">
<stop stop-color="#4FACFE"/>
<stop offset="1" stop-color="#3A4DCC"/>
</linearGradient>
<linearGradient id="paint3_linear_179_1367" x1="69.6309" y1="25.0358" x2="86.225" y2="25.0358" gradientUnits="userSpaceOnUse">
<stop stop-color="#4FACFE"/>
<stop offset="1" stop-color="#3A4DCC"/>
</linearGradient>
<clipPath id="clip0_179_1367">
<rect width="100" height="100" fill="white"/>
</clipPath>
</defs>
</svg>
