<svg width="100" height="100" viewBox="0 0 100 100" fill="none" xmlns="http://www.w3.org/2000/svg">
<path d="M60.4056 4.4946C63.4374 7.76747 65.1738 12.0945 65.4853 16.6771C65.3858 21.7926 63.7193 25.9261 60.5054 29.6236C57.7831 32.3894 54.5563 34.1471 50.7602 34.0707C50.7881 34.3996 50.8161 34.7284 50.8448 35.0671C51.1045 38.461 51.1792 41.8088 51.1328 45.2127C51.0632 46.9789 51.0632 46.9789 51.534 48.6345C51.9069 48.636 52.2799 48.6375 52.6641 48.6391C56.1822 48.6545 59.7002 48.6785 63.2182 48.711C65.0267 48.7275 66.8352 48.7409 68.6438 48.7473C70.3899 48.7536 72.1359 48.7679 73.8819 48.7878C74.5473 48.7939 75.2128 48.7972 75.8783 48.7976C76.812 48.7986 77.7452 48.8098 78.6788 48.8235C79.0896 48.8203 79.0896 48.8203 79.5087 48.8171C81.4412 48.8606 82.5474 49.4074 84.0341 50.7151C85.5972 53.3619 85.3945 56.294 85.4366 59.3493C85.4563 60.3614 85.4774 61.3735 85.5001 62.3856C85.5069 62.8312 85.5137 63.2768 85.5207 63.7359C85.5383 64.9032 85.5383 64.9032 85.9686 66.111C86.203 66.1421 86.4374 66.1733 86.679 66.2053C90.6404 66.8739 93.5282 68.8188 96.0977 72.1137C97.3441 74.0093 98.2329 76.0706 99.1234 78.1782C99.2701 78.4458 99.4167 78.7135 99.5678 78.9892C100.033 80.1932 99.9995 81.2491 99.994 82.5473C99.996 83.015 99.9979 83.4827 100 83.9647C99.899 85.2297 99.704 85.8403 99.1234 86.9164C98.8772 87.5907 98.6356 88.267 98.398 88.9449C96.8022 93.2575 93.88 96.6895 89.9571 98.6796C85.676 100.415 80.9293 100.503 76.6829 98.5674C72.9236 96.3441 69.8419 93.1277 68.381 88.7369C68.0734 87.2895 68.2114 86.2642 68.5579 84.8359C69.3239 84.8359 70.09 84.8359 70.8793 84.8359C71.1302 85.3641 71.3798 85.8931 71.6289 86.4223C71.7681 86.7168 71.9072 87.0112 72.0506 87.3146C72.4269 88.1647 72.4269 88.1647 72.8138 89.4131C73.0692 89.5504 73.3245 89.6877 73.5876 89.8292C73.6824 89.5867 73.7772 89.3443 73.8748 89.0945C74.4405 88.0137 75.0762 87.3992 75.9574 86.6043C76.2377 86.349 76.518 86.0937 76.8068 85.8306C77.0213 85.6397 77.2357 85.4487 77.4567 85.252C77.2732 84.943 77.0896 84.6341 76.9005 84.3157C75.7853 82.2048 75.6025 80.1581 76.0738 77.7539C76.8609 75.0379 78.4555 73.5923 80.697 72.1966C83.2854 71.5338 85.5844 71.7071 87.9032 73.1849C89.7344 74.9658 91.0821 76.7245 91.3853 79.4265C91.1868 81.7211 90.8426 83.4583 89.4508 85.252C89.6887 85.4478 89.9266 85.6435 90.1717 85.8453C90.4844 86.1043 90.7971 86.3634 91.1193 86.6303C91.429 86.8862 91.7388 87.1421 92.0579 87.4057C92.7886 88.0396 93.4478 88.6825 94.0936 89.4131C95.6873 86.2088 96.1568 83.0797 95.3904 79.5045C94.2486 75.7262 92.2652 73.055 89.0472 71.0897C86.2134 69.5871 83.1281 69.2769 80.1016 70.2494C76.1894 71.9094 73.8263 74.0246 72.0763 78.1782C71.9765 78.4356 71.8768 78.6931 71.774 78.9584C71.2662 80.2587 71.2662 80.2587 70.4924 81.0909C68.7298 80.8597 68.7298 80.8597 68.171 80.2587C68.2322 76.1104 69.9254 73.3471 72.4995 70.3501C75.205 67.5825 78.0731 66.5121 81.7127 66.111C81.667 64.3408 81.619 62.5706 81.5686 60.8005C81.5518 60.1979 81.5357 59.5953 81.5203 58.9926C81.498 58.1281 81.4733 57.2636 81.4482 56.3991C81.434 55.8783 81.4198 55.3575 81.4052 54.821C81.4503 53.671 81.4503 53.671 80.9389 53.2117C80.0093 53.1597 79.0903 53.1343 78.1601 53.1263C77.8695 53.1221 77.5789 53.118 77.2794 53.1138C76.3143 53.1006 75.3492 53.0903 74.3841 53.08C73.7167 53.0715 73.0494 53.0627 72.382 53.0538C70.622 53.0308 68.862 53.0103 67.102 52.9902C65.3074 52.9694 63.5128 52.9462 61.7183 52.9232C58.1946 52.8784 54.6708 52.8364 51.1471 52.7956C51.1471 57.0524 51.1471 61.3092 51.1471 65.6949C52.5516 66.1069 53.9561 66.5188 55.4031 66.9433C59.7452 68.8948 62.4441 72.0047 64.3019 76.6486C65.4803 80.1398 65.5269 83.6562 65.4626 87.3325C65.2073 87.3325 64.9519 87.3325 64.6888 87.3325C64.632 87.5642 64.5751 87.796 64.5165 88.0347C63.3601 92.266 60.8276 95.5565 57.3074 97.8409C53.0856 100.189 48.8052 100.523 44.207 99.1396C40.226 97.6408 37.4273 94.684 35.1389 90.9215C34.3594 89.0512 34.105 87.2988 34.1233 85.252C34.2509 85.1147 34.3786 84.9774 34.5102 84.8359C35.2762 84.8359 36.0423 84.8359 36.8316 84.8359C37.5977 86.4837 38.3638 88.1315 39.153 89.8292C39.7755 89.0439 39.7755 89.0439 40.4105 88.2428C41.3345 87.077 42.2417 86.1324 43.409 85.252C43.026 84.544 43.026 84.544 42.6352 83.8216C41.6199 81.6105 41.4266 79.6387 42.1304 77.2744C43.1278 74.8766 44.5016 73.5188 46.6252 72.2226C49.1344 71.5323 51.2803 71.6965 53.5502 73.0727C55.2131 74.3418 56.4414 76.037 56.9507 78.1782C57.2046 80.7578 56.843 82.5236 55.79 84.8359C55.79 85.1105 55.79 85.3851 55.79 85.6681C56.4145 86.3325 57.0634 86.9705 57.7245 87.5926C58.2632 88.1027 58.2632 88.1027 58.8127 88.6231C59.092 88.8838 59.3713 89.1445 59.659 89.4131C61.2588 87.2824 61.8012 84.7604 61.7115 82.032C61.2182 78.0942 59.8008 74.9105 56.9507 72.3526C53.5406 70.0563 50.1476 69.1618 46.1627 70.1258C42.5605 71.3884 40.439 73.2554 38.706 76.8464C38.4431 77.415 38.1889 77.9884 37.9444 78.5663C37.5888 79.3712 37.5888 79.3712 36.8316 80.6748C35.7721 81.0682 35.7721 81.0682 34.8971 81.0909C34.2714 80.2002 34.2714 80.2002 33.7364 79.0104C34.511 74.8097 37.1303 71.1637 40.2654 68.6597C42.6829 66.9541 44.7706 66.111 47.665 66.111C47.665 61.7169 47.665 57.3228 47.665 52.7956C47.0904 53.0016 47.0904 53.0016 46.5042 53.2117C45.5868 53.2471 44.6684 53.2563 43.7504 53.2523C43.4716 53.2517 43.1928 53.2511 42.9055 53.2505C42.3007 53.2489 41.6958 53.2464 41.091 53.243C40.1352 53.2377 39.1793 53.235 38.2235 53.2329C36.1958 53.2282 34.1681 53.2202 32.1404 53.2117C29.7886 53.2019 27.4368 53.1934 25.085 53.1884C24.1408 53.1857 23.1967 53.1805 22.2525 53.1752C21.6774 53.1737 21.1022 53.1723 20.527 53.1711C20.0227 53.1689 19.5184 53.1667 18.9989 53.1645C17.9149 53.0727 17.9149 53.0727 17.4863 53.6278C17.4524 54.5206 17.4449 55.4146 17.4485 56.3081C17.4498 56.8512 17.451 57.3943 17.4523 57.9539C17.4556 58.5317 17.4588 59.1095 17.4621 59.6874C17.4641 60.2668 17.4658 60.8463 17.4674 61.4258C17.472 62.8488 17.4784 64.2719 17.4863 65.6949C18.0007 65.8539 18.0007 65.8539 18.5254 66.016C18.9765 66.1595 19.4276 66.303 19.8924 66.4507C20.339 66.591 20.7856 66.7313 21.2458 66.8759C22.9977 67.5426 24.252 68.52 25.6113 69.856C25.9465 70.1735 26.2817 70.4911 26.627 70.8183C29.957 74.8709 31.2926 78.7482 31.161 84.1727C30.7128 89.2121 28.8691 92.8181 25.4421 96.2008C22.5952 98.6791 19.3097 99.9788 15.6485 99.9458C15.3757 99.9434 15.1028 99.9411 14.8217 99.9387C10.4153 99.8291 7.36476 98.1617 4.06553 95.1085C1.59556 92.0214 -0.112471 89.364 0.0755675 85.252C0.203246 85.1147 0.330925 84.9774 0.462473 84.8359C1.22855 84.8359 1.99462 84.8359 2.78391 84.8359C3.4223 86.3463 4.0607 87.8568 4.71844 89.4131C4.97379 89.2757 5.22915 89.1384 5.49225 88.997C5.53215 88.7309 5.57205 88.4649 5.61315 88.1907C5.70093 87.9075 5.78871 87.6243 5.87915 87.3325C6.77387 86.8904 6.77387 86.8904 7.81368 86.5003C8.34129 86.1016 8.8614 85.6901 9.3613 85.252C9.10595 84.8658 8.85059 84.4796 8.58749 84.0817C7.51198 82.0451 7.50702 80.0438 7.81368 77.762C8.61654 75.1717 10.4267 73.5355 12.5775 72.2226C15.0344 71.5467 17.2512 71.6542 19.4753 73.0272C21.1531 74.3654 22.2567 75.853 22.7851 78.0465C23.103 80.6688 22.7512 82.4488 21.7423 84.8359C21.7423 85.1105 21.7423 85.3851 21.7423 85.6681C22.3046 86.244 22.8887 86.7956 23.4834 87.3325C24.0781 87.8695 24.6621 88.421 25.2244 88.997C25.2244 89.2716 25.2244 89.5462 25.2244 89.8292C26.9188 88.3382 27.1754 86.2839 27.4491 84.0557C27.7451 80.1904 26.3794 77.0753 24.3781 73.9391C21.9 71.2739 18.7555 69.8834 15.2616 69.7C11.6266 69.8067 8.81175 71.2976 6.21618 73.9846C5.04194 75.3872 4.27726 76.7933 3.66502 78.5764C3.38845 79.3745 3.38845 79.3745 2.78391 80.6748C1.79246 81.1169 1.79246 81.1169 0.849379 81.0909C0.0755675 80.2587 0.0755675 80.2587 0 79.3582C0.00897742 79.0203 0.0179548 78.6824 0.0272043 78.3342C0.0341867 77.9941 0.0411692 77.6541 0.0483632 77.3037C0.0573406 77.043 0.0663181 76.7823 0.0755675 76.5137C0.330925 76.5137 0.586283 76.5137 0.849379 76.5137C0.897258 76.1919 0.897258 76.1919 0.946105 75.8636C2.02797 72.0821 4.67479 69.318 7.8832 67.491C9.62977 66.6804 10.9255 66.111 12.8435 66.111C13.2546 64.7845 13.3027 63.7657 13.3392 62.3709C13.3536 61.8793 13.3681 61.3877 13.383 60.8812C13.3965 60.3671 13.4099 59.853 13.4238 59.3233C13.4506 58.3106 13.4788 57.298 13.5084 56.2854C13.5202 55.8357 13.5319 55.386 13.544 54.9228C13.6178 53.618 13.719 52.4029 14.0042 51.1312C16.0731 49.3414 17.73 48.9884 20.3051 48.9718C20.7337 48.9666 20.7337 48.9666 21.1709 48.9613C21.791 48.9541 22.411 48.9478 23.031 48.9423C24.0114 48.9335 24.9917 48.9223 25.972 48.9104C28.4062 48.8813 30.8405 48.8566 33.2747 48.8317C35.3324 48.8105 37.39 48.7877 39.4476 48.7627C40.415 48.7516 41.3825 48.743 42.35 48.7344C42.9408 48.7275 43.5316 48.7205 44.1225 48.7133C44.3928 48.7116 44.6632 48.7099 44.9417 48.7081C46.3509 48.7056 46.3509 48.7056 47.665 48.2184C47.665 43.5497 47.665 38.8809 47.665 34.0707C46.7712 33.9334 45.8775 33.7961 44.9566 33.6546C41.1555 32.6234 37.9225 29.7124 35.816 26.2167C35.5032 25.6486 35.1967 25.0765 34.8971 24.5003C34.7629 24.2449 34.6288 23.9896 34.4905 23.7266C33.8424 22.3385 33.7144 21.6874 34.0507 20.1571C34.2023 19.8053 34.354 19.4534 34.5102 19.0909C35.2762 19.0909 36.0423 19.0909 36.8316 19.0909C37.5977 20.7387 38.3638 22.3864 39.153 24.0842C39.568 23.5606 39.983 23.0371 40.4105 22.4978C41.3345 21.332 42.2417 20.3874 43.409 19.507C43.026 18.7989 43.026 18.7989 42.6352 18.0766C41.6199 15.8655 41.4266 13.8937 42.1304 11.5294C43.1527 9.07178 44.546 7.60526 46.8428 6.47761C49.4103 5.87011 51.2471 5.9587 53.5366 7.3277C55.213 8.58241 56.441 10.2904 56.9507 12.4331C57.2046 15.0128 56.843 16.7786 55.79 19.0909C55.79 19.3655 55.79 19.6401 55.79 19.9231C56.0453 19.9231 56.3007 19.9231 56.5638 19.9231C57.2318 20.6513 57.2318 20.6513 57.9663 21.5875C58.2107 21.8965 58.4551 22.2054 58.7069 22.5238C58.9867 22.8842 58.9867 22.8842 59.2721 23.2519C59.6552 23.1146 60.0382 22.9773 60.4329 22.8358C61.9887 19.3034 61.9498 15.8469 60.8334 12.2056C59.5412 8.91237 57.1339 6.33438 54.0806 4.92858C50.5139 3.64993 47.2646 3.76827 43.7959 5.35932C40.6982 7.20554 39.0044 10.0707 37.5812 13.4734C36.9634 14.869 36.9634 14.869 35.816 15.3979C34.8971 15.3459 34.8971 15.3459 34.1233 14.5137C33.8461 10.899 35.6599 7.98022 37.678 5.2813C40.7108 1.72107 44.5131 0.323509 48.8982 0.0799538C49.1683 0.0603756 49.4384 0.0407974 49.7166 0.0206259C53.6999 -0.228011 57.3676 1.8011 60.4056 4.4946ZM46.5042 10.7687C45.3849 12.2305 45.1206 13.5268 45.1758 15.3735C45.4606 16.7396 46.2977 17.4101 47.2781 18.2587C47.4057 18.396 47.5334 18.5333 47.665 18.6748C48.4519 18.7578 48.4519 18.7578 49.3577 18.7528C49.817 18.7616 49.817 18.7616 50.2856 18.7707C51.2583 18.7351 51.2583 18.7351 52.3078 17.8425C52.3078 17.5679 52.3078 17.2933 52.3078 17.0103C52.5632 17.0103 52.8185 17.0103 53.0816 17.0103C53.7534 15.5653 53.7014 14.0094 53.4685 12.4331C52.6245 11.2865 51.9705 10.5873 50.7602 9.9365C48.4914 9.77159 48.4914 9.77159 46.5042 10.7687ZM42.4417 25.1504C41.8129 26.1632 41.8129 26.1632 41.4745 27.413C44.0509 29.848 46.596 30.7419 49.9864 30.7419C52.3269 30.4752 54.6031 29.6662 56.5638 28.2452C56.8192 27.8333 57.0745 27.4213 57.3376 26.9969C55.9907 24.4474 54.5473 23.3613 51.9209 22.4197C48.2855 22.0894 45.0934 22.2273 42.4417 25.1504ZM59.659 23.6681C60.0459 24.5003 60.0459 24.5003 60.0459 24.5003L59.659 23.6681ZM13.2304 65.2788C13.6173 66.111 13.6173 66.111 13.6173 66.111L13.2304 65.2788ZM85.1948 65.2788C85.5817 66.111 85.5817 66.111 85.5817 66.111L85.1948 65.2788ZM12.0696 76.9298C11.1602 78.5706 10.8679 79.4704 11.0782 81.377C11.8259 83.0818 12.425 83.6187 14.0042 84.4198C15.3289 84.6487 16.2139 84.7456 17.3866 83.9793C18.7777 82.7731 19.3618 82.0575 19.5659 80.1547C19.3747 78.098 18.8257 77.5381 17.4863 76.0976C15.6038 75.0853 13.6193 75.4947 12.0696 76.9298ZM45.8272 77.398C45.1989 78.952 44.999 80.2556 45.3435 81.9231C46.1853 83.0429 46.8566 83.777 48.0519 84.4198C49.9852 84.5767 51.1435 84.4584 52.6947 83.1714C53.6084 81.6976 53.7019 80.8665 53.665 79.1339C53.3606 77.6531 52.6514 76.9848 51.537 76.109C49.394 74.9297 47.2993 75.4755 45.8272 77.398ZM80.2331 77.0599C79.3418 78.4355 79.1768 79.8669 79.3912 81.507C80.0347 82.8073 80.8582 83.7523 82.0996 84.4198C84.3175 84.6294 84.3175 84.6294 86.3072 83.7176C87.182 82.6937 87.5974 82.0228 87.9032 80.6748C87.7881 79.0244 87.2587 77.8448 86.3555 76.5137C84.4002 74.9366 81.9715 75.286 80.2331 77.0599ZM8.20059 91.0775C7.68485 92.1669 7.68485 92.1669 7.42678 93.158C10.2124 95.8731 12.8744 96.3072 16.5251 96.2187C18.946 95.9531 20.9083 95.1751 22.7579 93.4701C22.9335 93.2298 23.109 92.9895 23.2899 92.7419C21.6425 90.4109 20.2451 88.6777 17.4863 88.1647C13.7887 87.7936 10.9565 88.1983 8.20059 91.0775ZM42.7652 90.5882C42.1593 91.4601 42.1593 91.4601 41.4745 92.7419C43.305 95.0182 45.0831 95.9323 47.872 96.2041C51.3949 96.3178 54.0866 96.0149 56.7814 93.4701C56.965 93.2298 57.1485 92.9895 57.3376 92.7419C56.1018 90.4027 54.8155 89.1672 52.3607 88.337C49.0424 87.6455 45.1803 87.7408 42.7652 90.5882ZM76.8129 90.5882C76.207 91.4601 76.207 91.4601 75.5222 92.7419C77.3482 95.0126 79.1238 95.9302 81.9061 96.2041C85.1175 96.3085 88.4281 96.1973 90.9077 93.7253C91.0653 93.5381 91.2229 93.3509 91.3853 93.158C90.9412 91.128 89.8335 90.2878 88.355 89.0945C85.0415 87.0655 79.4394 87.4915 76.8129 90.5882Z" fill="url(#paint0_linear_175_1348)"/>
<defs>
<linearGradient id="paint0_linear_175_1348" x1="3.72529e-07" y1="50" x2="111.89" y2="50" gradientUnits="userSpaceOnUse">
<stop stop-color="#4FACFE"/>
<stop offset="1" stop-color="#3A4DCC"/>
</linearGradient>
</defs>
</svg>
