<svg width="100" height="100" viewBox="0 0 100 100" fill="none" xmlns="http://www.w3.org/2000/svg">
<path d="M51.3124 44.5239C47.7977 44.4871 44.3724 43.4167 41.468 41.4476C38.5635 39.4784 36.3097 36.6985 34.9902 33.4578C33.6707 30.2172 33.3446 26.6606 34.0529 23.236C34.7613 19.8113 36.4723 16.6717 38.9707 14.2124C41.4692 11.753 44.6432 10.084 48.0932 9.41527C51.5433 8.74658 55.1151 9.10818 58.359 10.4545C61.6029 11.8009 64.3738 14.0719 66.3229 16.9814C68.272 19.891 69.3121 23.3092 69.3123 26.8056C69.2792 31.5269 67.3662 36.0428 63.9924 39.3639C60.6185 42.685 56.0589 44.5405 51.3124 44.5239ZM51.3124 15.3042C49.0339 15.3409 46.8171 16.0466 44.9405 17.3325C43.0639 18.6185 41.6112 20.4273 40.7647 22.5319C39.9183 24.6365 39.7159 26.9429 40.183 29.1615C40.6501 31.3801 41.7658 33.412 43.39 35.0019C45.0143 36.5918 47.0746 37.6688 49.3122 38.0977C51.5499 38.5266 53.865 38.2882 55.9669 37.4124C58.0687 36.5367 59.8636 35.0627 61.126 33.1756C62.3884 31.2884 63.062 29.0723 63.0623 26.8056C63.0293 23.733 61.7748 20.7984 59.5731 18.6433C57.3713 16.4881 54.4014 15.2876 51.3124 15.3042Z" fill="url(#paint0_linear_175_1354)"/>
<path d="M51.3124 44.5239C47.7977 44.4871 44.3724 43.4167 41.468 41.4476C38.5635 39.4784 36.3097 36.6985 34.9902 33.4578C33.6707 30.2172 33.3446 26.6606 34.0529 23.236C34.7613 19.8113 36.4723 16.6717 38.9707 14.2124C41.4692 11.753 44.6432 10.084 48.0932 9.41527C51.5433 8.74658 55.1151 9.10818 58.359 10.4545C61.6029 11.8009 64.3738 14.0719 66.3229 16.9814C68.272 19.891 69.3121 23.3092 69.3123 26.8056C69.2792 31.5269 67.3662 36.0428 63.9924 39.3639C60.6185 42.685 56.0589 44.5405 51.3124 44.5239ZM51.3124 15.3042C49.0339 15.3409 46.8171 16.0466 44.9405 17.3325C43.0639 18.6185 41.6112 20.4273 40.7647 22.5319C39.9183 24.6365 39.7159 26.9429 40.183 29.1615C40.6501 31.3801 41.7658 33.412 43.39 35.0019C45.0143 36.5918 47.0746 37.6688 49.3122 38.0977C51.5499 38.5266 53.865 38.2882 55.9669 37.4124C58.0687 36.5367 59.8636 35.0627 61.126 33.1756C62.3884 31.2884 63.062 29.0723 63.0623 26.8056C63.0293 23.733 61.7748 20.7984 59.5731 18.6433C57.3713 16.4881 54.4014 15.2876 51.3124 15.3042Z" fill="url(#paint1_linear_175_1354)"/>
<path d="M62.2189 48.6893C48.3582 46.2901 34.089 48.4738 21.5942 54.9062C20.7073 55.3961 19.9728 56.1192 19.4713 56.9964C18.9697 57.8736 18.7204 58.8711 18.7505 59.8798V70.946C18.7505 71.7704 19.0797 72.5611 19.6658 73.144C20.2518 73.727 21.0467 74.0545 21.8755 74.0545C22.7043 74.0545 23.4991 73.727 24.0852 73.144C24.6712 72.5611 25.0004 71.7704 25.0004 70.946V60.2839C36.5868 54.501 49.7627 52.6661 62.5002 55.0617L62.2189 48.6893Z" fill="url(#paint2_linear_175_1354)"/>
<path d="M96.8746 62.2112H75.9373V57.6106C75.9373 56.7862 75.608 55.9956 75.022 55.4126C74.436 54.8297 73.6411 54.5022 72.8123 54.5022C71.9835 54.5022 71.1887 54.8297 70.6026 55.4126C70.0166 55.9956 69.6873 56.7862 69.6873 57.6106V62.2112H46.875C46.0462 62.2112 45.2513 62.5387 44.6653 63.1216C44.0792 63.7046 43.75 64.4953 43.75 65.3197V96.4045C43.75 97.2289 44.0792 98.0196 44.6653 98.6025C45.2513 99.1855 46.0462 99.513 46.875 99.513H96.8746C97.7034 99.513 98.4983 99.1855 99.0843 98.6025C99.6704 98.0196 99.9996 97.2289 99.9996 96.4045V65.3197C99.9996 64.4953 99.6704 63.7046 99.0843 63.1216C98.4983 62.5387 97.7034 62.2112 96.8746 62.2112ZM93.7497 93.296H50V68.4282H69.6873V69.7026C69.6873 70.5271 70.0166 71.3177 70.6026 71.9007C71.1887 72.4836 71.9835 72.8111 72.8123 72.8111C73.6411 72.8111 74.436 72.4836 75.022 71.9007C75.608 71.3177 75.9373 70.5271 75.9373 69.7026V68.4282H93.7497V93.296Z" fill="url(#paint3_linear_175_1354)"/>
<path d="M80.5311 79.0591H61.9062V83.411H80.5311V79.0591Z" fill="url(#paint4_linear_175_1354)"/>
<path d="M27.6248 31.8724C18.9731 32.0164 10.4715 34.1439 2.78123 38.0894C1.94487 38.5288 1.2443 39.1861 0.754416 39.991C0.264537 40.7958 0.00377137 41.718 0 42.6589V52.2952C0 53.1196 0.329238 53.9102 0.915285 54.4932C1.50133 55.0761 2.29618 55.4036 3.12498 55.4036C3.95378 55.4036 4.74863 55.0761 5.33467 54.4932C5.92072 53.9102 6.24996 53.1196 6.24996 52.2952V43.2806C13.5977 39.6425 21.7329 37.8596 29.9373 38.0894C28.8639 36.1412 28.0847 34.0464 27.6248 31.8724Z" fill="url(#paint5_linear_175_1354)"/>
<path d="M97.2186 38.0583C90.3213 34.4593 82.7411 32.3413 74.9687 31.8413C74.511 34.0115 73.7428 36.1051 72.6875 38.0583C80.0095 38.2326 87.2022 40.016 93.7499 43.2806V52.2952C93.7499 53.1196 94.0791 53.9102 94.6651 54.4932C95.2512 55.0761 96.046 55.4036 96.8748 55.4036C97.7036 55.4036 98.4985 55.0761 99.0845 54.4932C99.6706 53.9102 99.9998 53.1196 99.9998 52.2952V42.6589C100.002 41.7127 99.7436 40.784 99.2535 39.9732C98.7633 39.1624 98.0596 38.5002 97.2186 38.0583Z" fill="url(#paint6_linear_175_1354)"/>
<path d="M27.0624 26.8056C27.0624 26.0906 27.0624 25.4068 27.0624 24.7229C24.6144 24.397 22.387 23.1445 20.8439 21.2262C19.3009 19.3078 18.5611 16.8713 18.7785 14.424C18.9959 11.9768 20.1539 9.70715 22.0113 8.08772C23.8686 6.4683 26.2823 5.62381 28.7499 5.73008C31.3165 5.72545 33.7834 6.71817 35.6248 8.49663C37.2495 7.16365 39.0339 6.03601 40.9373 5.13947C38.8111 2.70757 35.994 0.973599 32.8573 0.166114C29.7206 -0.641372 26.4116 -0.484473 23.3663 0.61613C20.3211 1.71673 17.6825 3.70938 15.7985 6.33142C13.9145 8.95347 12.8734 12.0818 12.8125 15.3042C12.8781 19.2481 14.4194 23.026 17.1353 25.9001C19.8512 28.7741 23.5467 30.5378 27.4999 30.8466C27.2348 29.515 27.0884 28.1628 27.0624 26.8056Z" fill="url(#paint7_linear_175_1354)"/>
<path d="M71.1552 -0.486905C69.0077 -0.486435 66.8818 -0.0600925 64.9019 0.767195C62.922 1.59448 61.1277 2.80611 59.624 4.33124C61.7366 5.09272 63.7344 6.13862 65.5615 7.43972C67.0204 6.43235 68.7268 5.83771 70.4987 5.7192C72.2706 5.6007 74.0417 5.96276 75.623 6.7668C77.2043 7.57084 78.5367 8.7867 79.4779 10.2847C80.4191 11.7828 80.934 13.5069 80.9676 15.2731C80.948 17.0873 80.4121 18.8589 79.4222 20.3828C78.4322 21.9066 77.0287 23.1204 75.3739 23.8836C75.4996 24.8421 75.5623 25.8078 75.5614 26.7745C75.5531 28.024 75.4486 29.271 75.2489 30.5047C78.6532 29.6341 81.6727 27.6684 83.8374 24.9136C86.0021 22.1588 87.1904 18.7695 87.2176 15.2731C87.1763 11.0683 85.4639 7.05055 82.4543 4.0976C79.4447 1.14465 75.3825 -0.503532 71.1552 -0.486905Z" fill="url(#paint8_linear_175_1354)"/>
<defs>
<linearGradient id="paint0_linear_175_1354" x1="33.6875" y1="26.8061" x2="73.5481" y2="26.8061" gradientUnits="userSpaceOnUse">
<stop stop-color="#4FACFE"/>
<stop offset="1" stop-color="#3A4DCC"/>
</linearGradient>
<linearGradient id="paint1_linear_175_1354" x1="33.6875" y1="26.8061" x2="73.5481" y2="26.8061" gradientUnits="userSpaceOnUse">
<stop stop-color="#4FACFE"/>
<stop offset="1" stop-color="#3A4DCC"/>
</linearGradient>
<linearGradient id="paint2_linear_175_1354" x1="18.748" y1="60.8978" x2="67.7024" y2="60.8979" gradientUnits="userSpaceOnUse">
<stop stop-color="#4FACFE"/>
<stop offset="1" stop-color="#3A4DCC"/>
</linearGradient>
<linearGradient id="paint3_linear_175_1354" x1="43.75" y1="77.0076" x2="106.688" y2="77.0076" gradientUnits="userSpaceOnUse">
<stop stop-color="#4FACFE"/>
<stop offset="1" stop-color="#3A4DCC"/>
</linearGradient>
<linearGradient id="paint4_linear_175_1354" x1="61.9063" y1="81.2351" x2="82.7457" y2="81.2351" gradientUnits="userSpaceOnUse">
<stop stop-color="#4FACFE"/>
<stop offset="1" stop-color="#3A4DCC"/>
</linearGradient>
<linearGradient id="paint5_linear_175_1354" x1="1.11525e-07" y1="43.638" x2="33.4969" y2="43.638" gradientUnits="userSpaceOnUse">
<stop stop-color="#4FACFE"/>
<stop offset="1" stop-color="#3A4DCC"/>
</linearGradient>
<linearGradient id="paint6_linear_175_1354" x1="72.6875" y1="43.6225" x2="103.247" y2="43.6225" gradientUnits="userSpaceOnUse">
<stop stop-color="#4FACFE"/>
<stop offset="1" stop-color="#3A4DCC"/>
</linearGradient>
<linearGradient id="paint7_linear_175_1354" x1="12.8125" y1="15.2521" x2="44.2814" y2="15.2521" gradientUnits="userSpaceOnUse">
<stop stop-color="#4FACFE"/>
<stop offset="1" stop-color="#3A4DCC"/>
</linearGradient>
<linearGradient id="paint8_linear_175_1354" x1="59.624" y1="15.0088" x2="90.4985" y2="15.0088" gradientUnits="userSpaceOnUse">
<stop stop-color="#4FACFE"/>
<stop offset="1" stop-color="#3A4DCC"/>
</linearGradient>
</defs>
</svg>
