<svg width="24" height="24" viewBox="0 0 24 24" fill="none" xmlns="http://www.w3.org/2000/svg">
<g clip-path="url(#clip0_16_3717)">
<path d="M24 14C23.9995 13.0699 23.7107 12.1628 23.1735 11.4035C22.6362 10.6442 21.8769 10.07 21 9.76V9C21 6.61305 20.0518 4.32387 18.364 2.63604C16.6761 0.948211 14.3869 0 12 0C9.61305 0 7.32386 0.948211 5.63604 2.63604C3.94821 4.32387 3 6.61305 3 9V9.76C2.12446 10.0713 1.36675 10.646 0.830932 11.4052C0.295109 12.1643 0.00744629 13.0708 0.00744629 14C0.00744629 14.9292 0.295109 15.8357 0.830932 16.5948C1.36675 17.354 2.12446 17.9287 3 18.24C3.22659 18.3188 3.46846 18.3435 3.70632 18.3123C3.94418 18.281 4.17144 18.1946 4.37 18.06C4.56415 17.9188 4.72234 17.7339 4.83178 17.5202C4.94123 17.3065 4.99885 17.0701 5 16.83V9C5 7.14348 5.7375 5.36301 7.05025 4.05025C8.363 2.7375 10.1435 2 12 2C13.8565 2 15.637 2.7375 16.9497 4.05025C18.2625 5.36301 19 7.14348 19 9V16.83C19.0025 17.038 19.0483 17.2432 19.1343 17.4326C19.2204 17.6219 19.3449 17.7913 19.5 17.93V18.5C19.5 19.98 18.21 20.5 17 20.5H15.22C15.0442 20.1955 14.7912 19.9428 14.4866 19.7672C14.182 19.5917 13.8365 19.4995 13.4849 19.5C13.1333 19.5006 12.7881 19.5938 12.484 19.7703C12.18 19.9467 11.9278 20.2003 11.7529 20.5053C11.578 20.8103 11.4867 21.156 11.488 21.5076C11.4893 21.8591 11.5833 22.2042 11.7605 22.5078C11.9376 22.8115 12.1917 23.0631 12.4971 23.2373C12.8025 23.4115 13.1484 23.5021 13.5 23.5C13.849 23.4979 14.1914 23.4045 14.4932 23.2291C14.7949 23.0536 15.0455 22.8023 15.22 22.5H17C19.65 22.5 21.5 20.86 21.5 18.5V18C22.246 17.6299 22.8747 17.06 23.3161 16.3538C23.7575 15.6476 23.9942 14.8328 24 14Z" fill="white"/>
<path d="M10.75 16.75C10.75 17.0815 10.8817 17.3994 11.1161 17.6339C11.3505 17.8683 11.6685 18 12 18C12.3315 18 12.6495 17.8683 12.8839 17.6339C13.1183 17.3994 13.25 17.0815 13.25 16.75C13.25 16.4185 13.1183 16.1005 12.8839 15.8661C12.6495 15.6317 12.3315 15.5 12 15.5C11.6685 15.5 11.3505 15.6317 11.1161 15.8661C10.8817 16.1005 10.75 16.4185 10.75 16.75ZM9.5 10.5C9.83152 10.5 10.1495 10.3683 10.3839 10.1339C10.6183 9.89945 10.75 9.5815 10.75 9.24998C10.7508 9.02481 10.8124 8.80403 10.9283 8.61097C11.0442 8.41791 11.2101 8.25974 11.4084 8.15318C11.6068 8.04661 11.8303 7.99561 12.0552 8.00556C12.2802 8.01552 12.4983 8.08605 12.6865 8.20971C12.8746 8.33337 13.0259 8.50557 13.1243 8.70811C13.2227 8.91065 13.2646 9.13601 13.2455 9.36038C13.2264 9.58474 13.147 9.79978 13.0158 9.98277C12.8846 10.1658 12.7064 10.3099 12.5 10.4C11.9798 10.6261 11.5371 10.9992 11.2262 11.4736C10.9153 11.9479 10.7498 12.5028 10.75 13.07V13.63C10.75 13.9615 10.8817 14.2794 11.1161 14.5139C11.3505 14.7483 11.6685 14.88 12 14.88C12.3315 14.88 12.6495 14.7483 12.8839 14.5139C13.1183 14.2794 13.25 13.9615 13.25 13.63V13.07C13.2508 12.9893 13.2748 12.9106 13.3191 12.8432C13.3634 12.7758 13.4262 12.7226 13.5 12.69C14.1195 12.4196 14.6544 11.9868 15.0482 11.4373C15.4419 10.8879 15.6798 10.2422 15.7367 9.56868C15.7936 8.89512 15.6674 8.2187 15.3714 7.611C15.0754 7.00329 14.6206 6.48689 14.0552 6.11642C13.4898 5.74595 12.8348 5.53519 12.1595 5.50645C11.4841 5.4777 10.8136 5.63203 10.2187 5.95311C9.62391 6.27419 9.12693 6.75008 8.78037 7.33043C8.4338 7.91079 8.25055 8.57403 8.25 9.24998C8.25 9.5815 8.3817 9.89945 8.61612 10.1339C8.85054 10.3683 9.16848 10.5 9.5 10.5Z" fill="white"/>
</g>
<defs>
<clipPath id="clip0_16_3717">
<rect width="24" height="24" fill="white"/>
</clipPath>
</defs>
</svg>
