<svg width="20" height="23" viewBox="0 0 20 23" fill="none" xmlns="http://www.w3.org/2000/svg">
<path d="M2 20V18C2 16.9391 2.42143 15.9217 3.17157 15.1716C3.92172 14.4214 4.93913 14 6 14H9.5M4 6C4 7.06087 4.42143 8.07828 5.17157 8.82843C5.92172 9.57857 6.93913 10 8 10C9.06087 10 10.0783 9.57857 10.8284 8.82843C11.5786 8.07828 12 7.06087 12 6C12 4.93913 11.5786 3.92172 10.8284 3.17157C10.0783 2.42143 9.06087 2 8 2C6.93913 2 5.92172 2.42143 5.17157 3.17157C4.42143 3.92172 4 4.93913 4 6ZM14.42 14.61C14.615 14.415 14.8465 14.2603 15.1013 14.1548C15.3561 14.0492 15.6292 13.9949 15.905 13.9949C16.1808 13.9949 16.4539 14.0492 16.7087 14.1548C16.9635 14.2603 17.195 14.415 17.39 14.61C17.585 14.805 17.7397 15.0365 17.8452 15.2913C17.9508 15.5461 18.0051 15.8192 18.0051 16.095C18.0051 16.3708 17.9508 16.6439 17.8452 16.8987C17.7397 17.1535 17.585 17.385 17.39 17.58L14 21H11V18L14.42 14.61Z" stroke="white" stroke-width="2" stroke-linecap="round" stroke-linejoin="round"/>
</svg>
